<svg width="30" height="22" viewBox="0 0 30 22" fill="none" xmlns="http://www.w3.org/2000/svg">
<path d="M29.2198 10.6421C23.6611 10.6421 19.1264 6.21584 19.1264 0.763558C19.1264 0.345987 18.7729 0 18.3462 0C17.9195 0 17.566 0.345987 17.566 0.763558C17.566 4.97505 19.9065 8.6616 23.3929 10.6421H0.780171C0.353515 10.6421 0 10.9881 0 11.4056C0 11.8232 0.353515 12.1692 0.780171 12.1692H23.1857C19.8212 14.0304 17.566 17.3948 17.566 21.2245C17.566 21.6421 17.9195 21.9881 18.3462 21.9881C18.7729 21.9881 19.1264 21.6421 19.1264 21.2245C19.1264 16.2256 23.6489 12.1692 29.2198 12.1692C29.6465 12.1692 30 11.8232 30 11.4056C30 10.9881 29.6465 10.6421 29.2198 10.6421Z" fill="white"/>
</svg>
